<svg class="logo" version="1.0" xmlns="http://www.w3.org/2000/svg" width="300" height="200" viewBox="0 0 707.000000 471.000000" preserveAspectRatio="xMidYMid meet">

<g transform="translate(0.000000,471.000000) scale(0.100000,-0.100000)" fill="#000000" stroke="none">
<path d="M2975 3296 c-32 -32 -40 -69 -26 -116 14 -49 72 -100 111 -100 41 0 81 -58 73 -106 -7 -43 20 -78 53 -70 16 4 26 -1 39 -20 16 -24 18 -25 33 -10 13 12 14 19 4 28 -19 19 -15 25 31 42 93 33 87 37 87 -47 l0 -74 -74 -47 c-132 -83 -256 -240 -256 -323 0 -27 5 -35 27 -44 41 -15 66 2 98 68 38 79 149 187 241 236 l72 37 59 -43 c94 -70 151 -153 167 -242 10 -50 31 -75 66 -75 42 0 54 22 47 88 -7 87 -49 165 -131 248 -39 39 -79 76 -89 81 -15 8 -17 17 -11 61 4 31 12 52 19 52 18 0 97 -73 130 -119 33 -48 65 -60 100 -37 41 27 33 66 -28 138 -62 74 -160 142 -237 166 -81 25 -236 21 -315 -7 -33 -12 -67 -24 -75 -27 -9 -3 -23 8 -36 29 -19 29 -20 35 -8 52 8 10 14 37 14 59 0 105 -122 185 -185 122z"/>
<path d="M3486 3305 c-41 -22 -55 -44 -56 -88 -1 -101 139 -136 185 -47 22 43 18 76 -12 110 -34 37 -78 46 -117 25z"/>
<path d="M3784 2716 c-10 -27 1 -51 26 -54 31 -5 53 23 39 49 -12 22 -57 25 -65 5z"/>
<path d="M3912 2130 c-18 -4 -34 -9 -36 -11 -2 -2 -6 -93 -9 -201 l-5 -198 53 0 c68 0 82 6 101 41 20 40 30 154 15 173 -8 10 -9 16 -1 21 14 9 12 125 -3 155 -14 28 -55 35 -115 20z m93 -30 c4 -6 9 -35 12 -65 5 -44 2 -59 -12 -75 -16 -18 -16 -20 -1 -35 9 -9 16 -33 16 -54 0 -99 -29 -138 -93 -126 l-35 7 -4 171 c-2 107 1 175 7 179 15 11 103 9 110 -2z"/>
<path d="M3926 2044 c-20 -51 8 -110 39 -84 28 23 16 100 -15 100 -10 0 -21 -7 -24 -16z m31 -51 c-3 -10 -5 -2 -5 17 0 19 2 27 5 18 2 -10 2 -26 0 -35z"/>
<path d="M3924 1897 c-3 -8 -4 -32 -2 -53 3 -34 6 -39 28 -39 23 0 25 3 25 50 0 44 -3 50 -23 53 -13 2 -24 -3 -28 -11z m36 -36 c0 -17 -4 -33 -10 -36 -6 -4 -10 8 -10 29 0 20 5 36 10 36 6 0 10 -13 10 -29z"/>
<path d="M4323 2129 c-49 -14 -64 -44 -64 -133 -1 -82 8 -101 48 -117 28 -10 38 -32 27 -56 -7 -16 -8 -15 -11 5 -3 15 -11 22 -28 22 -46 0 -55 -9 -55 -60 0 -78 36 -97 119 -64 45 18 49 25 57 99 9 76 0 104 -41 121 -31 13 -35 18 -34 52 0 34 1 35 10 12 13 -33 13 -32 43 -19 23 11 26 18 26 63 0 28 -4 56 -8 63 -11 17 -53 23 -89 12z m71 -35 c12 -31 7 -84 -8 -84 -8 0 -16 10 -18 23 -4 31 -30 28 -46 -6 -20 -41 -7 -73 38 -102 39 -25 40 -27 40 -83 0 -78 -14 -95 -76 -96 l-49 -1 -3 43 c-2 33 0 42 12 42 9 0 16 -8 16 -19 0 -24 23 -33 45 -17 11 8 16 23 13 46 -2 27 -11 40 -40 59 -30 19 -37 31 -43 68 -10 71 2 120 33 132 42 15 79 13 86 -5z"/>
<path d="M2253 2119 c-39 -11 -49 -41 -62 -183 -13 -135 -5 -205 25 -218 24 -11 128 5 138 21 3 4 8 54 12 111 l7 103 -43 -6 c-24 -3 -47 -11 -51 -19 -11 -17 -10 37 1 72 l8 25 1 -27 c1 -31 5 -32 47 -18 28 10 29 12 26 68 -2 31 -9 63 -14 70 -12 14 -49 14 -95 1z m85 -70 c2 -33 -1 -48 -11 -52 -10 -4 -17 4 -21 24 -7 37 -33 38 -47 2 -5 -14 -8 -71 -7 -127 3 -98 4 -101 27 -104 13 -2 28 2 32 10 14 21 10 58 -6 64 -24 9 -19 51 7 57 12 3 25 4 30 1 4 -3 8 -41 8 -85 0 -76 -1 -80 -26 -89 -14 -6 -43 -10 -64 -10 -51 0 -54 11 -48 190 5 163 9 172 77 168 l46 -3 3 -46z m-48 -229 c0 -11 -4 -20 -10 -20 -5 0 -10 9 -10 20 0 11 5 20 10 20 6 0 10 -9 10 -20z"/>
<path d="M2450 2108 c-40 -21 -46 -28 -52 -67 -4 -25 -9 -103 -10 -173 -3 -118 -1 -131 16 -144 41 -30 141 -8 157 34 6 15 12 96 12 180 2 150 1 154 -22 173 -30 25 -47 24 -101 -3z m91 -35 c6 -16 12 -90 13 -166 1 -157 -3 -167 -75 -167 -71 0 -69 -4 -69 164 0 83 4 156 8 163 10 16 51 32 85 32 21 1 30 -5 38 -26z"/>
<path d="M2467 2028 c-24 -13 -25 -225 -1 -235 38 -14 51 35 46 173 -2 65 -13 80 -45 62z m23 -113 c0 -57 -4 -95 -10 -95 -11 0 -14 130 -4 168 11 40 14 24 14 -73z"/>
<path d="M2664 2111 c-23 -10 -45 -27 -49 -37 -4 -11 -10 -91 -13 -178 -4 -146 -3 -161 14 -173 23 -17 76 -17 119 1 43 19 50 47 50 229 0 134 -1 139 -24 158 -29 24 -45 24 -97 0z m87 -33 c18 -34 18 -300 0 -321 -16 -20 -101 -23 -119 -5 -15 15 -17 281 -1 309 22 42 101 53 120 17z"/>
<path d="M2675 2024 c-11 -12 -15 -39 -15 -112 0 -107 7 -127 38 -118 28 9 36 51 27 152 -7 87 -20 107 -50 78z m25 -109 c0 -57 -4 -95 -10 -95 -6 0 -10 26 -10 58 0 57 9 132 16 132 2 0 4 -43 4 -95z"/>
<path d="M2838 2123 c-15 -4 -18 -16 -18 -61 0 -31 -3 -121 -7 -199 l-6 -143 67 0 67 0 19 43 c38 88 38 309 -1 348 -18 18 -76 24 -121 12z m109 -39 c15 -20 27 -150 20 -224 -7 -85 -24 -114 -67 -118 -19 -1 -40 1 -46 5 -7 5 -14 72 -19 180 -6 161 -6 171 12 176 29 8 87 -3 100 -19z"/>
<path d="M2877 2043 c-4 -3 -7 -60 -7 -125 0 -107 2 -118 18 -118 10 0 23 5 30 12 15 15 16 175 2 212 -9 25 -29 34 -43 19z m24 -211 c-8 -12 -10 8 -11 74 0 50 3 94 8 98 11 12 14 -152 3 -172z"/>
<path d="M3181 2121 c-17 -4 -27 -17 -32 -36 -9 -37 -39 -292 -39 -335 0 -28 2 -30 40 -30 38 0 40 2 40 29 0 16 3 36 6 45 12 31 24 15 24 -30 l0 -46 37 7 c21 4 42 9 47 12 8 6 3 179 -10 326 l-7 67 -41 -1 c-22 -1 -52 -4 -65 -8z m96 -131 c6 -58 12 -135 12 -172 1 -62 -1 -68 -19 -68 -15 0 -20 7 -20 29 0 66 -64 66 -75 0 -5 -30 -11 -39 -23 -37 -13 2 -16 14 -14 53 5 95 23 289 29 298 2 4 26 7 51 5 l47 -3 12 -105z"/>
<path d="M3202 2017 c-6 -7 -14 -38 -18 -69 -6 -49 -4 -57 13 -66 34 -19 46 0 41 67 -5 67 -18 91 -36 68z m14 -115 c-13 -12 -18 9 -10 45 l8 38 4 -39 c2 -21 1 -41 -2 -44z"/>
<path d="M3578 2118 c-14 -11 -17 -43 -20 -206 l-3 -193 65 3 c65 3 65 3 85 43 35 70 34 315 -1 350 -19 18 -103 20 -126 3z m111 -33 c12 -11 16 -45 19 -142 3 -109 0 -133 -15 -163 -16 -32 -22 -35 -61 -34 -23 0 -44 3 -46 5 -2 2 -6 82 -8 176 -3 191 -5 185 61 178 19 -3 42 -11 50 -20z"/>
<path d="M3615 2018 c-3 -18 -5 -73 -3 -123 3 -88 4 -90 27 -90 33 0 44 39 36 137 -7 93 -12 108 -36 108 -13 0 -20 -10 -24 -32z m38 -131 c-3 -32 -10 -60 -14 -63 -11 -6 -12 94 -2 151 l7 40 7 -35 c4 -19 5 -61 2 -93z"/>
<path d="M4140 2121 l-55 -6 -6 -65 c-6 -60 -13 -264 -10 -319 1 -23 3 -24 55 -18 80 8 98 20 94 65 -3 35 -5 37 -35 34 -30 -3 -33 -1 -33 23 0 19 8 29 35 42 31 15 35 21 35 55 l0 39 -35 -7 c-38 -7 -41 -1 -26 40 7 17 19 26 38 28 26 3 28 7 31 51 3 40 1 47 -15 45 -10 -1 -43 -4 -73 -7z m68 -48 c3 -18 -2 -23 -18 -23 -45 0 -60 -18 -60 -68 l0 -48 35 4 c28 3 35 1 35 -12 0 -10 -15 -23 -35 -32 -33 -13 -35 -17 -35 -59 0 -45 0 -45 35 -45 28 0 35 -4 35 -19 0 -21 -26 -31 -78 -31 l-33 0 3 170 c3 191 4 192 73 188 33 -3 41 -7 43 -25z"/>
<path d="M4500 2123 c-39 -8 -50 -22 -50 -69 0 -37 3 -44 19 -44 19 0 19 -7 14 -150 -6 -150 -6 -150 16 -150 53 0 61 14 61 109 0 48 3 116 6 150 6 56 9 61 30 61 22 0 24 4 24 50 l0 50 -47 -1 c-27 -1 -59 -4 -73 -6z m90 -47 c0 -15 -7 -27 -19 -31 -24 -7 -31 -49 -31 -192 0 -89 -3 -113 -14 -113 -19 0 -26 67 -19 192 6 106 6 107 -15 101 -27 -7 -38 17 -22 46 9 17 20 21 65 21 52 0 55 -2 55 -24z"/>
<path d="M3364 2108 c-19 -9 -22 -21 -28 -115 -3 -59 -6 -146 -6 -195 l0 -89 38 3 37 3 4 60 3 60 17 -50 c14 -40 23 -51 43 -53 13 -2 30 3 37 11 11 14 33 340 24 365 -6 13 -41 16 -60 4 -6 -4 -13 -30 -15 -57 l-3 -50 -19 58 c-20 59 -31 66 -72 45z m56 -90 c34 -97 48 -98 52 -6 2 60 6 73 21 76 16 3 17 -9 17 -148 0 -140 -8 -190 -29 -190 -4 0 -21 34 -36 75 -39 100 -55 99 -55 -5 0 -73 -2 -80 -20 -80 -19 0 -20 7 -20 114 0 247 23 300 70 164z"/>
</g>
</svg>
